<svg xmlns="http://www.w3.org/2000/svg" width="32" height="32" viewBox="0 0 32 32">
    <g fill="none" fill-rule="evenodd">
        <path fill="#2582E7" d="M9 11h17v18H8a2 2 0 0 1-2-2V5a2 2 0 0 1 2-2h18v2H9a1 1 0 0 0-1 1v4a1 1 0 0 0 1 1z"/>
        <path fill="#2582E7" d="M11 7h13v2H11a1 1 0 1 1 0-2z"/>
        <path fill="#FFF" d="M14.795 24l-.569-1.87h-2.863l-.57 1.87H9l2.771-7.885h2.036L16.59 24h-1.794zm-.966-3.266a552.87 552.87 0 0 1-.89-2.873 8.111 8.111 0 0 1-.142-.527c-.118.459-.456 1.592-1.015 3.4h2.047zM21.537 24l-.317-.816h-.043c-.275.347-.56.588-.851.722-.292.134-.672.201-1.141.201-.577 0-1.03-.164-1.362-.494-.331-.33-.497-.798-.497-1.407 0-.637.223-1.107.669-1.41.446-.302 1.118-.47 2.017-.502l1.042-.032v-.263c0-.61-.312-.914-.935-.914-.48 0-1.044.145-1.692.436l-.542-1.107c.69-.362 1.457-.542 2.299-.542.805 0 1.423.175 1.853.526.43.35.644.884.644 1.6V24h-1.144zm-.483-2.782l-.634.021c-.476.015-.83.1-1.063.258-.233.158-.35.398-.35.72 0 .462.265.693.795.693.38 0 .683-.11.91-.328.228-.218.342-.508.342-.87v-.494z"/>
    </g>
</svg>
