<svg xmlns="http://www.w3.org/2000/svg" width="32" height="32" viewBox="0 0 32 32">
    <path fill="#7E919F" fill-rule="evenodd" d="M9 11h17v18H8a2 2 0 0 1-2-2V5a2 2 0 0 1 2-2h18v2H9a1 1 0 0 0-1 1v4a1 1 0 0 0 1 1zm5.795 13h1.794l-2.782-7.885h-2.036L9 24h1.794l.57-1.87h2.862l.57 1.87zm-.966-3.266h-2.047c.559-1.808.897-2.941 1.015-3.4.029.13.076.305.143.527.066.222.362 1.18.889 2.873zM21.537 24h1.144v-4.001c0-.717-.215-1.25-.644-1.601-.43-.351-1.048-.526-1.853-.526-.842 0-1.608.18-2.3.542l.543 1.107c.648-.29 1.212-.436 1.692-.436.623 0 .935.305.935.914v.263l-1.042.032c-.899.032-1.571.2-2.017.502-.446.303-.669.773-.669 1.41 0 .609.166 1.078.497 1.407.331.33.785.494 1.362.494.469 0 .85-.067 1.141-.201.292-.134.576-.375.851-.722h.043l.317.816zm-.483-2.782v.494c0 .362-.114.652-.341.87-.228.218-.531.328-.91.328-.53 0-.796-.231-.796-.693 0-.322.117-.562.35-.72.232-.157.587-.243 1.063-.258l.634-.021zM11 7h13v2H11a1 1 0 1 1 0-2z"/>
</svg>
