<svg viewBox="0 0 32 32" xmlns="http://www.w3.org/2000/svg"><path d="M9 3C7.343 3 6 4.293 6 5.889v17.333c0 .257.106.502.295.683C6.648 25.122 7.63 26.11 9 26.11h1v-1.926H9c-.565 0-1-.419-1-.963s.435-.963 1-.963h15c1.105 0 2-.862 2-1.926V4.926C26 3.862 25.105 3 24 3H9zm1 2.889h1c.552 0 1 .431 1 .963v.963c0 .531-.448.963-1 .963h-1c-.552 0-1-.432-1-.963v-.963c0-.532.448-.963 1-.963zm0 4.815h1c.552 0 1 .431 1 .963v.963c0 .531-.448.963-1 .963h-1c-.552 0-1-.432-1-.963v-.963c0-.532.448-.963 1-.963zm0 4.815h1c.552 0 1 .43 1 .962v.963c0 .532-.448.963-1 .963h-1c-.552 0-1-.431-1-.963v-.963c0-.531.448-.962 1-.962zm2 8.666V29l3-1.926L18 29v-4.815h-6zm8 0v1.926h5c.552 0 1-.431 1-.963s-.448-.963-1-.963h-5z" fill="currentColor" fill-rule="nonzero"></path></svg>