<svg viewBox="0 0 32 32" xmlns="http://www.w3.org/2000/svg"><path d="M6.845 4v4.615H5.93a.915.915 0 00-.804.458.93.93 0 000 .93.915.915 0 00.804.459h.916a.92.92 0 01.916.923.92.92 0 01-.916.923H5.93a.915.915 0 00-.804.457.93.93 0 000 .931.915.915 0 00.804.458h.916a.92.92 0 01.916.923.92.92 0 01-.916.923H5.93a.915.915 0 00-.804.458.93.93 0 000 .93.915.915 0 00.804.458h.916a.92.92 0 01.916.923.92.92 0 01-.916.923H5.93a.915.915 0 00-.804.458.93.93 0 000 .93.915.915 0 00.804.458h.916a.92.92 0 01.916.924.92.92 0 01-.916.923V28h18.323A1.839 1.839 0 0027 26.154V5.846C27 4.826 26.18 4 25.168 4H6.845zm7.05 6.846c.42 0 .797.26.945.649l3.02 8a1.001 1.001 0 01-.943 1.351c-.408 0-.792-.247-.944-.648l-.51-1.352h-3.135l-.511 1.352a1.01 1.01 0 01-1.296.586 1 1 0 01-.59-1.29l3.02-8c.149-.39.525-.648.945-.648zm7.552 3h1.51c.556 0 1.008.447 1.008 1v4c.555 0 1.007.447 1.007 1 0 .553-.452 1-1.007 1-.414 0-.8-.126-1.12-.34-.359.2-.812.34-1.398.34-1.435 0-2.517-.968-2.517-2.25v-2.285l.001-.068c.046-1.001.733-2.397 2.516-2.397zm-7.747 1l-.813 2.152h1.625l-.812-2.152zm7.747 1c-.125 0-.503 0-.503.5v2.25c0 .164.252.25.503.25.267 0 .447-.06.504-.16v-2.84h-.504z" fill="currentColor" fill-rule="nonzero"></path></svg>